<svg xmlns="http://www.w3.org/2000/svg" width="40" height="40" viewBox="0 0 40 40" fill="none">
    <path d="M29 16H10V34H29V16Z" fill="#FFC759"/>
    <path d="M36.25 5H31.25V3.75C31.25 3.41848 31.1183 3.10054 30.8839 2.86612C30.6495 2.6317 30.3315 2.5 30 2.5C29.6685 2.5 29.3505 2.6317 29.1161 2.86612C28.8817 3.10054 28.75 3.41848 28.75 3.75V5H11.25V3.75C11.25 3.41848 11.1183 3.10054 10.8839 2.86612C10.6495 2.6317 10.3315 2.5 10 2.5C9.66848 2.5 9.35054 2.6317 9.11612 2.86612C8.8817 3.10054 8.75 3.41848 8.75 3.75V5H3.75C3.41848 5 3.10054 5.1317 2.86612 5.36612C2.6317 5.60054 2.5 5.91848 2.5 6.25V13.75C2.5 14.0815 2.6317 14.3995 2.86612 14.6339C3.10054 14.8683 3.41848 15 3.75 15H5V36.25C5 36.5815 5.1317 36.8995 5.36612 37.1339C5.60054 37.3683 5.91848 37.5 6.25 37.5H33.75C34.0815 37.5 34.3995 37.3683 34.6339 37.1339C34.8683 36.8995 35 36.5815 35 36.25V15H36.25C36.5815 15 36.8995 14.8683 37.1339 14.6339C37.3683 14.3995 37.5 14.0815 37.5 13.75V6.25C37.5 5.91848 37.3683 5.60054 37.1339 5.36612C36.8995 5.1317 36.5815 5 36.25 5ZM32.5 35H7.5V15H32.5V35ZM35 12.5H5V7.5H8.75V8.75C8.75 9.08152 8.8817 9.39946 9.11612 9.63388C9.35054 9.8683 9.66848 10 10 10C10.3315 10 10.6495 9.8683 10.8839 9.63388C11.1183 9.39946 11.25 9.08152 11.25 8.75V7.5H28.75V8.75C28.75 9.08152 28.8817 9.39946 29.1161 9.63388C29.3505 9.8683 29.6685 10 30 10C30.3315 10 30.6495 9.8683 30.8839 9.63388C31.1183 9.39946 31.25 9.08152 31.25 8.75V7.5H35V12.5Z" fill="#F7F5FB"/>
    <path d="M17.5 18.75H12.5C12.1685 18.75 11.8505 18.8817 11.6161 19.1161C11.3817 19.3505 11.25 19.6685 11.25 20C11.25 20.3315 11.3817 20.6495 11.6161 20.8839C11.8505 21.1183 12.1685 21.25 12.5 21.25H16.25V23.75H13.75C13.4185 23.75 13.1005 23.8817 12.8661 24.1161C12.6317 24.3505 12.5 24.6685 12.5 25C12.5 25.3315 12.6317 25.6495 12.8661 25.8839C13.1005 26.1183 13.4185 26.25 13.75 26.25H16.25V28.75H12.5C12.1685 28.75 11.8505 28.8817 11.6161 29.1161C11.3817 29.3505 11.25 29.6685 11.25 30C11.25 30.3315 11.3817 30.6495 11.6161 30.8839C11.8505 31.1183 12.1685 31.25 12.5 31.25H17.5C17.8315 31.25 18.1495 31.1183 18.3839 30.8839C18.6183 30.6495 18.75 30.3315 18.75 30V20C18.75 19.6685 18.6183 19.3505 18.3839 19.1161C18.1495 18.8817 17.8315 18.75 17.5 18.75ZM22.5 28.75C22.1685 28.75 21.8505 28.8817 21.6161 29.1161C21.3817 29.3505 21.25 29.6685 21.25 30C21.25 30.3315 21.3817 30.6495 21.6161 30.8839C21.8505 31.1183 22.1685 31.25 22.5 31.25H27.5C27.8315 31.25 28.1495 31.1183 28.3839 30.8839C28.6183 30.6495 28.75 30.3315 28.75 30C28.75 29.6685 28.6183 29.3505 28.3839 29.1161C28.1495 28.8817 27.8315 28.75 27.5 28.75H26.25V20C26.2494 19.7869 26.1943 19.5775 26.0899 19.3918C25.9856 19.206 25.8355 19.0499 25.6539 18.9385C25.4723 18.827 25.2652 18.7638 25.0523 18.7549C24.8394 18.746 24.6278 18.7916 24.4375 18.8875L21.9375 20.1375C21.6671 20.3002 21.4682 20.5592 21.3808 20.8625C21.2935 21.1658 21.324 21.4909 21.4665 21.7726C21.6089 22.0542 21.8526 22.2716 22.1486 22.381C22.4447 22.4904 22.7711 22.4838 23.0625 22.3625L23.75 22.025V28.75H22.5Z" fill="#474747"/>
</svg>