<svg xmlns="http://www.w3.org/2000/svg" viewBox="0 0 17 21" fill="none">
    <path d="M8.50002 0C6.29064 0.00248136 4.17247 0.881252 2.6102 2.44352C1.04794 4.00578 0.169168 6.12396 0.166687 8.33333C0.166687 11.724 2.62815 14.5396 5.23544 17.5198C6.06044 18.4635 6.9146 19.4396 7.67502 20.4271C7.77233 20.5533 7.89731 20.6555 8.04034 20.7259C8.18337 20.7962 8.34063 20.8328 8.50002 20.8328C8.65941 20.8328 8.81667 20.7962 8.9597 20.7259C9.10273 20.6555 9.22771 20.5533 9.32502 20.4271C10.0854 19.4396 10.9396 18.4635 11.7646 17.5198C14.3719 14.5396 16.8334 11.724 16.8334 8.33333C16.8309 6.12396 15.9521 4.00578 14.3898 2.44352C12.8276 0.881252 10.7094 0.00248136 8.50002 0ZM8.50002 11.4583C7.88195 11.4583 7.27777 11.2751 6.76386 10.9317C6.24996 10.5883 5.84942 10.1002 5.6129 9.52922C5.37637 8.9582 5.31449 8.32987 5.43507 7.72368C5.55564 7.11749 5.85327 6.56066 6.29031 6.12362C6.72735 5.68659 7.28417 5.38896 7.89036 5.26838C8.49655 5.1478 9.12489 5.20969 9.69591 5.44621C10.2669 5.68273 10.755 6.08327 11.0984 6.59718C11.4417 7.11108 11.625 7.71527 11.625 8.33333C11.625 9.16213 11.2958 9.95699 10.7097 10.543C10.1237 11.1291 9.32882 11.4583 8.50002 11.4583Z" fill="#F06449"/>
</svg>