<svg xmlns="http://www.w3.org/2000/svg" width="41" height="40" viewBox="0 0 41 40" fill="none">
    <rect x="26" y="4" width="8.5" height="5.5" fill="#FFC759"/>
    <path d="M13 25.5L6 35.5H12.5L16 29.5L13 25.5Z" fill="#FFC759" stroke="#FFC759" stroke-width="2" stroke-linecap="square"/>
    <path d="M12.1775 22.931L3.17754 35.931C3.07371 36.0811 3.01292 36.2567 3.00175 36.4388C2.99059 36.621 3.02947 36.8027 3.1142 36.9643C3.19892 37.1259 3.32625 37.2613 3.4824 37.3557C3.63855 37.4501 3.81756 37.5 4.00004 37.5H37C37.177 37.5 37.3508 37.453 37.5037 37.3639C37.6566 37.2748 37.7831 37.1467 37.8703 36.9927C37.9574 36.8387 38.0022 36.6643 38 36.4874C37.9977 36.3104 37.9486 36.1372 37.8575 35.9855L26 16.223V11.5H35C35.2653 11.5 35.5196 11.3946 35.7071 11.2071C35.8947 11.0196 36 10.7652 36 10.5V3.5C36 3.23478 35.8947 2.98043 35.7071 2.79289C35.5196 2.60536 35.2653 2.5 35 2.5H25C24.7348 2.5 24.4805 2.60536 24.2929 2.79289C24.1054 2.98043 24 3.23478 24 3.5V16.223L17.1185 27.692L13.8225 22.931C13.7305 22.798 13.6076 22.6892 13.4644 22.6141C13.3211 22.539 13.1618 22.4998 13 22.4998C12.8383 22.4998 12.679 22.539 12.5357 22.6141C12.3924 22.6892 12.2695 22.798 12.1775 22.931ZM26 4.5H34V9.5H26V4.5ZM18.028 30.064L18.0435 30.0375L25 18.4435L35.234 35.5H14.766L18.028 30.064ZM15.989 29.574L12.434 35.5H5.90854L13 25.257L15.989 29.5745V29.574Z" fill="#474747"/>
</svg>