<svg xmlns="http://www.w3.org/2000/svg" width="36" height="36" viewBox="0 0 36 36" fill="none">
    <path d="M27 14H8V32H27V14Z" fill="#FFC759"/>
    <path d="M34.25 3H29.25V1.75C29.25 1.41848 29.1183 1.10054 28.8839 0.866116C28.6495 0.631696 28.3315 0.5 28 0.5C27.6685 0.5 27.3505 0.631696 27.1161 0.866116C26.8817 1.10054 26.75 1.41848 26.75 1.75V3H9.25V1.75C9.25 1.41848 9.1183 1.10054 8.88388 0.866116C8.64946 0.631696 8.33152 0.5 8 0.5C7.66848 0.5 7.35054 0.631696 7.11612 0.866116C6.8817 1.10054 6.75 1.41848 6.75 1.75V3H1.75C1.41848 3 1.10054 3.1317 0.866116 3.36612C0.631696 3.60054 0.5 3.91848 0.5 4.25V11.75C0.5 12.0815 0.631696 12.3995 0.866116 12.6339C1.10054 12.8683 1.41848 13 1.75 13H3V34.25C3 34.5815 3.1317 34.8995 3.36612 35.1339C3.60054 35.3683 3.91848 35.5 4.25 35.5H31.75C32.0815 35.5 32.3995 35.3683 32.6339 35.1339C32.8683 34.8995 33 34.5815 33 34.25V13H34.25C34.5815 13 34.8995 12.8683 35.1339 12.6339C35.3683 12.3995 35.5 12.0815 35.5 11.75V4.25C35.5 3.91848 35.3683 3.60054 35.1339 3.36612C34.8995 3.1317 34.5815 3 34.25 3ZM30.5 33H5.5V13H30.5V33ZM33 10.5H3V5.5H6.75V6.75C6.75 7.08152 6.8817 7.39946 7.11612 7.63388C7.35054 7.8683 7.66848 8 8 8C8.33152 8 8.64946 7.8683 8.88388 7.63388C9.1183 7.39946 9.25 7.08152 9.25 6.75V5.5H26.75V6.75C26.75 7.08152 26.8817 7.39946 27.1161 7.63388C27.3505 7.8683 27.6685 8 28 8C28.3315 8 28.6495 7.8683 28.8839 7.63388C29.1183 7.39946 29.25 7.08152 29.25 6.75V5.5H33V10.5Z" fill="#474747"/>
    <path d="M15.5 16.75H10.5C10.1685 16.75 9.85054 16.8817 9.61612 17.1161C9.3817 17.3505 9.25 17.6685 9.25 18C9.25 18.3315 9.3817 18.6495 9.61612 18.8839C9.85054 19.1183 10.1685 19.25 10.5 19.25H14.25V21.75H11.75C11.4185 21.75 11.1005 21.8817 10.8661 22.1161C10.6317 22.3505 10.5 22.6685 10.5 23C10.5 23.3315 10.6317 23.6495 10.8661 23.8839C11.1005 24.1183 11.4185 24.25 11.75 24.25H14.25V26.75H10.5C10.1685 26.75 9.85054 26.8817 9.61612 27.1161C9.3817 27.3505 9.25 27.6685 9.25 28C9.25 28.3315 9.3817 28.6495 9.61612 28.8839C9.85054 29.1183 10.1685 29.25 10.5 29.25H15.5C15.8315 29.25 16.1495 29.1183 16.3839 28.8839C16.6183 28.6495 16.75 28.3315 16.75 28V18C16.75 17.6685 16.6183 17.3505 16.3839 17.1161C16.1495 16.8817 15.8315 16.75 15.5 16.75ZM20.5 26.75C20.1685 26.75 19.8505 26.8817 19.6161 27.1161C19.3817 27.3505 19.25 27.6685 19.25 28C19.25 28.3315 19.3817 28.6495 19.6161 28.8839C19.8505 29.1183 20.1685 29.25 20.5 29.25H25.5C25.8315 29.25 26.1495 29.1183 26.3839 28.8839C26.6183 28.6495 26.75 28.3315 26.75 28C26.75 27.6685 26.6183 27.3505 26.3839 27.1161C26.1495 26.8817 25.8315 26.75 25.5 26.75H24.25V18C24.2494 17.7869 24.1943 17.5775 24.0899 17.3918C23.9856 17.206 23.8355 17.0499 23.6539 16.9385C23.4723 16.827 23.2652 16.7638 23.0523 16.7549C22.8394 16.746 22.6278 16.7916 22.4375 16.8875L19.9375 18.1375C19.6671 18.3002 19.4682 18.5592 19.3808 18.8625C19.2935 19.1658 19.324 19.4909 19.4665 19.7726C19.6089 20.0542 19.8526 20.2716 20.1486 20.381C20.4447 20.4904 20.7711 20.4838 21.0625 20.3625L21.75 20.025V26.75H20.5Z" fill="#474747"/>
</svg>