<svg xmlns="http://www.w3.org/2000/svg" viewBox="0 0 21 21" fill="none">
    <path fill-rule="evenodd" clip-rule="evenodd" d="M10.5 20.9163C16.2531 20.9163 20.9167 16.2528 20.9167 10.4997C20.9167 4.74655 16.2531 0.0830078 10.5 0.0830078C4.74689 0.0830078 0.0833435 4.74655 0.0833435 10.4997C0.0833435 16.2528 4.74689 20.9163 10.5 20.9163ZM11.5417 5.29134C11.5417 5.01507 11.4319 4.75012 11.2366 4.55477C11.0412 4.35942 10.7763 4.24967 10.5 4.24967C10.2237 4.24967 9.95879 4.35942 9.76344 4.55477C9.56809 4.75012 9.45834 5.01507 9.45834 5.29134V10.0684C9.45846 10.6209 9.67803 11.1507 10.0688 11.5413L12.8886 14.3611C13.085 14.5509 13.3481 14.6559 13.6213 14.6535C13.8944 14.6511 14.1556 14.5416 14.3488 14.3484C14.5419 14.1553 14.6515 13.894 14.6538 13.6209C14.6562 13.3478 14.5512 13.0847 14.3615 12.8882L11.5417 10.0684V5.29134Z" fill="#F06449"/>
</svg>