<svg xmlns="http://www.w3.org/2000/svg" width="40" height="40" viewBox="0 0 40 40" fill="none">
    <path d="M5.29249 16.439C5.05956 16.439 4.83499 16.3522 4.66255 16.1956C4.4901 16.039 4.38213 15.8238 4.35966 15.592C4.33719 15.3601 4.40184 15.1282 4.54101 14.9414C4.68018 14.7546 4.88391 14.6263 5.11249 14.5815C9.61687 13.6953 11.3319 11.5165 12.1706 5.61529C12.1867 5.49239 12.2271 5.37391 12.2893 5.26671C12.3515 5.1595 12.4344 5.0657 12.5331 4.99073C12.6318 4.91576 12.7444 4.86111 12.8644 4.82993C12.9843 4.79876 13.1093 4.79169 13.232 4.80913C13.3547 4.82656 13.4728 4.86816 13.5793 4.93152C13.6859 4.99488 13.7788 5.07873 13.8527 5.17823C13.9266 5.27773 13.9801 5.3909 14.01 5.51119C14.0399 5.63149 14.0456 5.75651 14.0269 5.87904C13.0831 12.5228 10.7644 15.3797 5.47437 16.4209C5.41449 16.433 5.35357 16.439 5.29249 16.439Z" fill="#FFC759"/>
    <path d="M20.9044 16.439C20.8431 16.439 20.782 16.433 20.7219 16.4209C15.4325 15.3797 13.1144 12.5228 12.1706 5.87904C12.1519 5.75651 12.1576 5.63149 12.1875 5.51119C12.2174 5.3909 12.2709 5.27773 12.3448 5.17823C12.4187 5.07873 12.5116 4.99488 12.6182 4.93152C12.7247 4.86816 12.8427 4.82656 12.9655 4.80913C13.0882 4.79169 13.2131 4.79876 13.3331 4.82993C13.4531 4.86111 13.5657 4.91576 13.6644 4.99073C13.7631 5.0657 13.846 5.1595 13.9082 5.26671C13.9704 5.37391 14.0107 5.49239 14.0269 5.61529C14.865 11.5165 16.5806 13.6947 21.085 14.5815C21.3136 14.6263 21.5173 14.7546 21.6565 14.9414C21.7957 15.1282 21.8603 15.3601 21.8378 15.592C21.8154 15.8238 21.7074 16.039 21.5349 16.1956C21.3625 16.3522 21.1379 16.439 20.905 16.439H20.9044ZM13.0975 26.1934C12.8719 26.1931 12.654 26.1115 12.4838 25.9635C12.3135 25.8155 12.2024 25.6111 12.1706 25.3878C11.3319 19.4872 9.61688 17.3078 5.11188 16.4209C4.98946 16.3988 4.87266 16.3526 4.76829 16.285C4.66391 16.2173 4.57405 16.1295 4.50392 16.0268C4.4338 15.9241 4.38483 15.8084 4.35985 15.6865C4.33488 15.5647 4.3344 15.4391 4.35845 15.317C4.3825 15.195 4.4306 15.0789 4.49994 14.9757C4.56929 14.8724 4.65849 14.784 4.76235 14.7155C4.86621 14.6471 4.98265 14.6 5.10489 14.577C5.22714 14.554 5.35274 14.5555 5.47438 14.5815C10.7644 15.6234 13.0825 18.4803 14.0262 25.124C14.0612 25.3702 13.997 25.6202 13.8476 25.8189C13.6983 26.0177 13.4761 26.1491 13.23 26.184C13.1861 26.1902 13.1418 26.1933 13.0975 26.1934Z" fill="#FFC759"/>
    <path d="M13.1 26.1938C13.0555 26.1937 13.011 26.1906 12.9669 26.1844C12.8449 26.1671 12.7276 26.1259 12.6216 26.0632C12.5156 26.0005 12.4229 25.9176 12.349 25.8191C12.275 25.7206 12.2212 25.6085 12.1906 25.4892C12.16 25.3699 12.1532 25.2457 12.1706 25.1238C13.1144 18.48 15.4325 15.6238 20.7225 14.5813C20.8441 14.5553 20.9697 14.5537 21.092 14.5767C21.2142 14.5997 21.3307 14.6468 21.4345 14.7153C21.5384 14.7837 21.6276 14.8722 21.6969 14.9754C21.7663 15.0787 21.8144 15.1947 21.8384 15.3168C21.8625 15.4388 21.862 15.5644 21.837 15.6863C21.8121 15.8081 21.7631 15.9238 21.693 16.0265C21.6228 16.1293 21.533 16.217 21.4286 16.2847C21.3242 16.3524 21.2074 16.3986 21.085 16.4207C16.5806 17.3082 14.8656 19.4869 14.0269 25.3875C13.9953 25.611 13.8842 25.8155 13.7139 25.9636C13.5436 26.1117 13.3257 26.1935 13.1 26.1938ZM20.6775 27.5957C20.4451 27.5948 20.2213 27.5077 20.0495 27.3512C19.8778 27.1947 19.7702 26.9799 19.7478 26.7486C19.7254 26.5173 19.7897 26.2859 19.9282 26.0993C20.0667 25.9127 20.2696 25.7843 20.4975 25.7388C23.895 25.07 25.1906 23.4157 25.8275 18.9319C25.8648 18.6878 25.9969 18.4683 26.1952 18.3211C26.3934 18.1738 26.6416 18.1107 26.8861 18.1455C27.1306 18.1802 27.3515 18.31 27.5008 18.5066C27.6501 18.7032 27.7159 18.9508 27.6838 19.1957C26.9338 24.4744 25.0838 26.7469 20.86 27.5782C20.7999 27.59 20.7388 27.5959 20.6775 27.5957Z" fill="#FFC759"/>
    <path d="M32.8337 27.5953C32.7725 27.5954 32.7114 27.5896 32.6512 27.5778C28.4275 26.7465 26.5775 24.4746 25.8275 19.1953C25.7954 18.9504 25.8611 18.7028 26.0104 18.5062C26.1598 18.3096 26.3807 18.1798 26.6251 18.1451C26.8696 18.1103 27.1179 18.1734 27.3161 18.3207C27.5143 18.4679 27.6464 18.6874 27.6837 18.9315C28.3212 23.4153 29.6169 25.069 33.0137 25.7378C33.2423 25.7826 33.4461 25.9108 33.5852 26.0976C33.7244 26.2844 33.789 26.5163 33.7666 26.7482C33.7441 26.98 33.6361 27.1952 33.4637 27.3518C33.2912 27.5084 33.0667 27.5952 32.8337 27.5953ZM26.755 35.1903C26.5292 35.1901 26.3111 35.1084 26.1407 34.9603C25.9703 34.8122 25.8591 34.6076 25.8275 34.384C25.19 29.9009 23.895 28.2465 20.4975 27.5778C20.3751 27.5557 20.2583 27.5095 20.1539 27.4418C20.0495 27.3741 19.9597 27.2864 19.8895 27.1836C19.8194 27.0809 19.7704 26.9652 19.7455 26.8434C19.7205 26.7215 19.72 26.5959 19.7441 26.4739C19.7681 26.3518 19.8162 26.2358 19.8856 26.1325C19.9549 26.0293 20.0441 25.9408 20.148 25.8724C20.2518 25.8039 20.3683 25.7568 20.4905 25.7338C20.6128 25.7108 20.7384 25.7124 20.86 25.7384C25.085 26.5696 26.935 28.8421 27.685 34.1209C27.7023 34.2429 27.6954 34.367 27.6647 34.4863C27.6339 34.6056 27.58 34.7177 27.5059 34.8162C27.4319 34.9146 27.3391 34.9975 27.233 35.0601C27.1269 35.1227 27.0095 35.1637 26.8875 35.1809C26.8436 35.187 26.7993 35.1901 26.755 35.1903Z" fill="#FFC759"/>
    <path d="M26.7575 35.1908C26.713 35.1907 26.6685 35.1876 26.6244 35.1815C26.5024 35.1642 26.3851 35.1231 26.279 35.0605C26.173 34.9979 26.0803 34.915 26.0063 34.8166C25.9323 34.7181 25.8784 34.6061 25.8478 34.4868C25.8171 34.3675 25.8102 34.2434 25.8275 34.1215C26.5775 28.8421 28.4275 26.5702 32.6512 25.739C32.8934 25.6953 33.1429 25.7486 33.3461 25.8872C33.5493 26.0259 33.6899 26.2389 33.7374 26.4803C33.785 26.7217 33.7358 26.9721 33.6004 27.1775C33.465 27.3829 33.2543 27.5269 33.0137 27.5783C29.6162 28.2471 28.3212 29.9015 27.6844 34.3846C27.6528 34.608 27.5416 34.8126 27.3714 34.9607C27.2011 35.1088 26.9832 35.1905 26.7575 35.1908ZM26.5756 12.2158C26.3426 12.2159 26.118 12.1292 25.9454 11.9727C25.7728 11.8162 25.6647 11.601 25.6422 11.3691C25.6196 11.1372 25.6842 10.9052 25.8234 10.7183C25.9626 10.5315 26.1664 10.4031 26.395 10.3583C28.53 9.93834 29.3056 8.93584 29.7131 6.06646C29.7293 5.94357 29.7696 5.82509 29.8318 5.71788C29.894 5.61068 29.9769 5.51687 30.0756 5.4419C30.1743 5.36693 30.2869 5.31228 30.4069 5.28111C30.5268 5.24993 30.6518 5.24286 30.7745 5.2603C30.8972 5.27774 31.0153 5.31934 31.1218 5.38269C31.2284 5.44605 31.3213 5.5299 31.3952 5.6294C31.4691 5.7289 31.5226 5.84207 31.5525 5.96236C31.5824 6.08266 31.5881 6.20769 31.5694 6.33021C31.1381 9.36896 30.1544 11.5302 26.7575 12.1983C26.6976 12.2101 26.6367 12.216 26.5756 12.2158Z" fill="#FFC759"/>
    <path d="M34.7075 12.2152C34.6462 12.2154 34.5851 12.2095 34.525 12.1977C31.1294 11.529 30.1456 9.36834 29.7131 6.32897C29.6936 6.20603 29.6987 6.08044 29.7282 5.9595C29.7577 5.83856 29.811 5.72471 29.8849 5.62459C29.9589 5.52447 30.0521 5.44008 30.159 5.37634C30.2659 5.31261 30.3845 5.27081 30.5077 5.25338C30.631 5.23595 30.7565 5.24324 30.8769 5.27482C30.9973 5.30641 31.1102 5.36166 31.209 5.43735C31.3078 5.51303 31.3906 5.60765 31.4525 5.71566C31.5143 5.82368 31.5541 5.94293 31.5694 6.06647C31.9775 8.93522 32.7531 9.93772 34.8881 10.3577C35.1168 10.4025 35.3205 10.5309 35.4597 10.7177C35.5989 10.9046 35.6635 11.1366 35.6409 11.3685C35.6184 11.6003 35.5103 11.8155 35.3377 11.9721C35.1652 12.1286 34.9405 12.2153 34.7075 12.2152ZM30.64 17.2958C30.4143 17.2955 30.1964 17.2138 30.0261 17.0657C29.8558 16.9176 29.7447 16.713 29.7131 16.4896C29.3056 13.6208 28.53 12.6171 26.395 12.1977C26.151 12.1496 25.9361 12.0066 25.7976 11.8001C25.659 11.5936 25.6082 11.3405 25.6563 11.0965C25.7043 10.8525 25.8474 10.6376 26.0539 10.499C26.2604 10.3605 26.5135 10.3096 26.7575 10.3577C30.1544 11.0265 31.1375 13.1877 31.57 16.2265C31.5873 16.3484 31.5804 16.4725 31.5497 16.5918C31.5191 16.7111 31.4652 16.8231 31.3912 16.9216C31.3172 17.02 31.2245 17.1029 31.1185 17.1655C31.0124 17.2281 30.8951 17.2692 30.7731 17.2865C30.729 17.2926 30.6845 17.2957 30.64 17.2958Z" fill="#FFC759"/>
    <path d="M30.6425 17.2958C30.598 17.2957 30.5535 17.2925 30.5094 17.2864C30.2632 17.2514 30.0411 17.1201 29.8917 16.9213C29.7424 16.7225 29.6782 16.4726 29.7131 16.2264C30.1456 13.1877 31.1294 11.0264 34.5256 10.3577C34.6473 10.3316 34.7729 10.3301 34.8951 10.3531C35.0174 10.3761 35.1338 10.4232 35.2377 10.4916C35.3415 10.5601 35.4307 10.6485 35.5001 10.7518C35.5694 10.8551 35.6175 10.9711 35.6416 11.0931C35.6656 11.2152 35.6651 11.3408 35.6402 11.4626C35.6152 11.5845 35.5662 11.7002 35.4961 11.8029C35.426 11.9057 35.3361 11.9934 35.2317 12.0611C35.1273 12.1287 35.0105 12.175 34.8881 12.197C32.7531 12.617 31.9781 13.6208 31.5694 16.4895C31.5378 16.713 31.4267 16.9175 31.2564 17.0656C31.0861 17.2137 30.8682 17.2954 30.6425 17.2958Z" fill="#FFC759"/>
    <path d="M13.125 10.6248C13.375 11.3748 10.3125 14.2706 8.75 15.6248C10.4167 17.8123 13.5625 21.9373 12.8125 20.9373C11.875 19.6873 19.0625 15.6248 17.5 15.6248C15.9375 15.6248 12.8125 9.6873 13.125 10.6248Z" fill="#FFC759" stroke="#FFC759" stroke-width="2" stroke-linecap="square"/>
    <path d="M27.102 23.2019C27.2936 23.7765 24.9471 25.9953 23.75 27.0328C25.027 28.7088 27.4372 31.8693 26.8626 31.1031C26.1443 30.1454 31.6512 27.0328 30.454 27.0328C29.2569 27.0328 26.8626 22.4836 27.102 23.2019Z" fill="#FFC759" stroke="#FFC759" stroke-width="1.53235" stroke-linecap="square"/>
    <path d="M30.8831 8.79895C31.005 9.16462 29.5118 10.5765 28.75 11.2368C29.5626 12.3033 31.0964 14.3145 30.7307 13.827C30.2736 13.2175 33.778 11.2368 33.0162 11.2368C32.2544 11.2368 30.7307 8.34185 30.8831 8.79895Z" fill="#FFC759" stroke="#FFC759" stroke-width="0.97513" stroke-linecap="square"/>
</svg>