<svg xmlns="http://www.w3.org/2000/svg" viewBox="0 0 23 22" fill="none">
    <path fill-rule="evenodd" clip-rule="evenodd" d="M22.5 11C22.5 17.0751 17.5751 22 11.5 22C5.42487 22 0.5 17.0751 0.5 11C0.5 4.92487 5.42487 0 11.5 0C17.5751 0 22.5 4.92487 22.5 11ZM3.5 15.9783L8.03504 11.4432L3.5 6.9082V15.9783ZM10.1428 11.7414L4.40137 6H18.5991L12.8577 11.7414C12.1326 12.4666 10.8679 12.4666 10.1428 11.7414ZM13.7623 12.6462C13.1588 13.2504 12.3549 13.5838 11.4999 13.5838C10.6449 13.5838 9.84101 13.2504 9.23749 12.6462L8.93989 12.3486L4.40869 16.8798H18.5911L14.0599 12.3486L13.7623 12.6462ZM19.4999 15.9783L14.9648 11.4432L19.4999 6.9082V15.9783Z" fill="#F06449"/>
</svg>