<svg xmlns="http://www.w3.org/2000/svg" viewBox="0 0 12 12" fill="none">
    <path d="M11.011 6.55159C10.9388 6.49193 10.8513 6.45374 10.7585 6.44136C10.6657 6.42899 10.5713 6.44292 10.486 6.48159C9.95728 6.72353 9.38242 6.84805 8.80099 6.84659C7.72541 6.84529 6.69397 6.41881 5.93155 5.66014C5.16914 4.90147 4.73758 3.87214 4.73099 2.79659C4.73327 2.45951 4.77522 2.12386 4.85599 1.79659C4.87312 1.70936 4.8667 1.61914 4.83736 1.53522C4.80803 1.4513 4.75685 1.37672 4.68911 1.31916C4.62136 1.2616 4.53949 1.22314 4.45193 1.20775C4.36438 1.19235 4.2743 1.20059 4.19099 1.23159C3.40715 1.58404 2.72577 2.12997 2.21087 2.81808C1.69596 3.50619 1.36443 4.3139 1.24741 5.16533C1.13039 6.01676 1.23174 6.88396 1.54192 7.68547C1.8521 8.48698 2.36094 9.19648 3.02064 9.74732C3.68033 10.2982 4.46922 10.6723 5.31321 10.8345C6.15719 10.9967 7.02856 10.9417 7.84546 10.6747C8.66236 10.4077 9.39797 9.93737 9.98318 9.30797C10.5684 8.67857 10.984 7.91073 11.191 7.07659C11.2162 6.98109 11.2126 6.88026 11.1805 6.78682C11.1485 6.69339 11.0895 6.61153 11.011 6.55159ZM6.26099 9.89659C5.42187 9.89067 4.60509 9.62552 3.92248 9.13745C3.23988 8.64939 2.72482 7.96226 2.44783 7.17015C2.17084 6.37804 2.14545 5.51968 2.37516 4.71259C2.60486 3.9055 3.07841 3.18914 3.73099 2.66159V2.79659C3.73231 4.14083 4.26689 5.42964 5.21742 6.38016C6.16794 7.33068 7.45674 7.86526 8.80099 7.86659C9.15393 7.86788 9.50597 7.831 9.85099 7.75659C9.50594 8.40935 8.98922 8.95551 8.35656 9.33616C7.72391 9.71681 6.99933 9.9175 6.26099 9.91659V9.89659Z" fill="black"/>
</svg>