<svg xmlns="http://www.w3.org/2000/svg" viewBox="0 0 23 23" fill="none">
    <path d="M9.32501 5.30022C9.02657 1.86741 5.44532 0.183036 5.29376 0.114286C5.15208 0.0476821 4.9933 0.0264023 4.83908 0.0533482C0.7047 0.739286 0.0828249 3.14554 0.0578249 3.24554C0.0238114 3.38489 0.0292212 3.53096 0.0734499 3.66741C5.0047 18.9674 15.2531 21.8034 18.6219 22.7362C18.8813 22.808 19.0953 22.8659 19.2578 22.919C19.4433 22.9796 19.6447 22.9678 19.8219 22.8862C19.925 22.8393 22.3594 21.6924 22.9547 17.9518C22.9811 17.7885 22.9548 17.621 22.8797 17.4737C22.8266 17.3705 21.5531 14.9471 18.0219 14.0908C17.9021 14.0602 17.7766 14.0591 17.6563 14.0877C17.536 14.1163 17.4245 14.1737 17.3313 14.2549C16.2172 15.2065 14.6781 16.2205 14.0141 16.3252C9.56251 14.1487 7.07657 9.9721 6.98283 9.17991C6.92814 8.7346 7.94845 7.17054 9.12189 5.89866C9.19564 5.81861 9.25182 5.72401 9.2868 5.62095C9.32178 5.51788 9.3348 5.40863 9.32501 5.30022Z" fill="#F06449"/>
</svg>