<svg xmlns="http://www.w3.org/2000/svg" viewBox="0 0 15 15" fill="none">
    <path d="M3.125 7.5C3.125 7.33424 3.05915 7.17527 2.94194 7.05806C2.82473 6.94085 2.66576 6.875 2.5 6.875H1.875C1.70924 6.875 1.55027 6.94085 1.43306 7.05806C1.31585 7.17527 1.25 7.33424 1.25 7.5C1.25 7.66576 1.31585 7.82473 1.43306 7.94194C1.55027 8.05915 1.70924 8.125 1.875 8.125H2.5C2.66576 8.125 2.82473 8.05915 2.94194 7.94194C3.05915 7.82473 3.125 7.66576 3.125 7.5ZM3.525 10.625L3.08125 11.0687C2.96484 11.1859 2.8995 11.3443 2.8995 11.5094C2.8995 11.6745 2.96484 11.8329 3.08125 11.95C3.19835 12.0664 3.35676 12.1317 3.52187 12.1317C3.68699 12.1317 3.8454 12.0664 3.9625 11.95L4.40625 11.5062C4.50864 11.3867 4.56214 11.2329 4.55607 11.0756C4.54999 10.9183 4.48479 10.7691 4.37348 10.6578C4.26217 10.5465 4.11296 10.4813 3.95566 10.4752C3.79836 10.4691 3.64456 10.5226 3.525 10.625ZM7.5 3.125C7.66576 3.125 7.82473 3.05915 7.94194 2.94194C8.05915 2.82473 8.125 2.66576 8.125 2.5V1.875C8.125 1.70924 8.05915 1.55027 7.94194 1.43306C7.82473 1.31585 7.66576 1.25 7.5 1.25C7.33424 1.25 7.17527 1.31585 7.05806 1.43306C6.94085 1.55027 6.875 1.70924 6.875 1.875V2.5C6.875 2.66576 6.94085 2.82473 7.05806 2.94194C7.17527 3.05915 7.33424 3.125 7.5 3.125ZM11.0375 4.5875C11.2015 4.58681 11.3586 4.52171 11.475 4.40625L11.9187 3.9625C11.9842 3.90647 12.0373 3.83752 12.0748 3.75998C12.1123 3.68244 12.1334 3.59798 12.1367 3.51191C12.1401 3.42583 12.1256 3.34 12.0941 3.2598C12.0627 3.17959 12.0151 3.10675 11.9542 3.04584C11.8932 2.98493 11.8204 2.93727 11.7402 2.90585C11.66 2.87443 11.5742 2.85993 11.4881 2.86325C11.402 2.86658 11.3176 2.88766 11.24 2.92517C11.1625 2.96269 11.0935 3.01582 11.0375 3.08125L10.625 3.525C10.5086 3.6421 10.4433 3.80051 10.4433 3.96562C10.4433 4.13074 10.5086 4.28915 10.625 4.40625C10.7352 4.51585 10.8822 4.58047 11.0375 4.5875ZM3.5375 4.40625C3.65391 4.52171 3.81104 4.58681 3.975 4.5875C4.05725 4.58798 4.13879 4.57221 4.21494 4.54111C4.29109 4.51 4.36035 4.46418 4.41875 4.40625C4.53516 4.28915 4.6005 4.13074 4.6005 3.96562C4.6005 3.80051 4.53516 3.6421 4.41875 3.525L3.975 3.08125C3.91714 3.02257 3.84828 2.97585 3.77236 2.94378C3.69645 2.9117 3.61496 2.8949 3.53254 2.89432C3.45013 2.89374 3.36841 2.90939 3.29205 2.9404C3.21569 2.9714 3.14618 3.01714 3.0875 3.075C3.02882 3.13286 2.9821 3.20172 2.95003 3.27764C2.91795 3.35355 2.90115 3.43504 2.90057 3.51746C2.8994 3.68389 2.96439 3.84398 3.08125 3.9625L3.5375 4.40625ZM13.125 6.875H12.5C12.3342 6.875 12.1753 6.94085 12.0581 7.05806C11.9408 7.17527 11.875 7.33424 11.875 7.5C11.875 7.66576 11.9408 7.82473 12.0581 7.94194C12.1753 8.05915 12.3342 8.125 12.5 8.125H13.125C13.2908 8.125 13.4497 8.05915 13.5669 7.94194C13.6842 7.82473 13.75 7.66576 13.75 7.5C13.75 7.33424 13.6842 7.17527 13.5669 7.05806C13.4497 6.94085 13.2908 6.875 13.125 6.875ZM11.475 10.625C11.3563 10.559 11.2192 10.5334 11.0847 10.5522C10.9501 10.571 10.8253 10.6332 10.7292 10.7292C10.6332 10.8253 10.571 10.9501 10.5522 11.0847C10.5334 11.2192 10.559 11.3563 10.625 11.475L11.0687 11.9187C11.1859 12.0352 11.3443 12.1005 11.5094 12.1005C11.6745 12.1005 11.8329 12.0352 11.95 11.9187C12.0664 11.8016 12.1317 11.6432 12.1317 11.4781C12.1317 11.313 12.0664 11.1546 11.95 11.0375L11.475 10.625ZM7.5 4.0625C6.82013 4.0625 6.15552 4.26411 5.59023 4.64182C5.02493 5.01954 4.58434 5.5564 4.32416 6.18453C4.06399 6.81265 3.99591 7.50381 4.12855 8.17062C4.26119 8.83743 4.58858 9.44994 5.06932 9.93068C5.55006 10.4114 6.16257 10.7388 6.82938 10.8714C7.49619 11.0041 8.18735 10.936 8.81547 10.6758C9.44359 10.4157 9.98046 9.97507 10.3582 9.40977C10.7359 8.84448 10.9375 8.17987 10.9375 7.5C10.9358 6.58883 10.5732 5.71544 9.92885 5.07114C9.28456 4.42685 8.41117 4.06415 7.5 4.0625ZM7.5 9.6875C7.06735 9.6875 6.64442 9.55921 6.28469 9.31884C5.92496 9.07847 5.64458 8.73683 5.47901 8.33712C5.31345 7.93741 5.27013 7.49757 5.35453 7.07324C5.43894 6.64891 5.64728 6.25913 5.9532 5.9532C6.25913 5.64728 6.64891 5.43894 7.07324 5.35453C7.49757 5.27013 7.93741 5.31345 8.33712 5.47901C8.73683 5.64458 9.07847 5.92496 9.31884 6.28469C9.55921 6.64442 9.6875 7.06735 9.6875 7.5C9.6875 8.08016 9.45703 8.63656 9.0468 9.0468C8.63656 9.45703 8.08016 9.6875 7.5 9.6875ZM7.5 11.875C7.33424 11.875 7.17527 11.9408 7.05806 12.0581C6.94085 12.1753 6.875 12.3342 6.875 12.5V13.125C6.875 13.2908 6.94085 13.4497 7.05806 13.5669C7.17527 13.6842 7.33424 13.75 7.5 13.75C7.66576 13.75 7.82473 13.6842 7.94194 13.5669C8.05915 13.4497 8.125 13.2908 8.125 13.125V12.5C8.125 12.3342 8.05915 12.1753 7.94194 12.0581C7.82473 11.9408 7.66576 11.875 7.5 11.875Z" fill="#F06449"/>
</svg>