<svg xmlns="http://www.w3.org/2000/svg" viewBox="0 0 23 22" fill="none">
    <path d="M11.5 3.78993e-08C9.32441 3.78993e-08 7.19767 0.645139 5.38873 1.85383C3.57979 3.06253 2.16989 4.78049 1.33733 6.79048C0.504766 8.80047 0.286929 11.0122 0.711367 13.146C1.1358 15.2798 2.18345 17.2398 3.72183 18.7782C5.26021 20.3165 7.22022 21.3642 9.35401 21.7886C11.4878 22.2131 13.6995 21.9952 15.7095 21.1627C17.7195 20.3301 19.4375 18.9202 20.6462 17.1113C21.8549 15.3023 22.5 13.1756 22.5 11C22.5001 9.55542 22.2157 8.12497 21.6629 6.79034C21.1102 5.4557 20.2999 4.24302 19.2784 3.22156C18.257 2.20009 17.0443 1.38984 15.7097 0.837081C14.375 0.284322 12.9446 -0.000119877 11.5 3.78993e-08ZM14.9975 16.6677C14.9563 16.7704 14.8936 16.863 14.8137 16.9395C14.7338 17.016 14.6385 17.0745 14.5341 17.1111C14.4297 17.1477 14.3187 17.1616 14.2085 17.1518C14.0984 17.142 13.9916 17.1088 13.8953 17.0544L10.9091 14.734L8.99257 16.5022C8.9481 16.5351 8.89608 16.5562 8.8413 16.5637C8.78652 16.5712 8.73073 16.5648 8.67908 16.545L9.04647 13.2577L9.05823 13.2671L9.06575 13.2022C9.06575 13.2022 14.4392 8.30989 14.6581 8.10145C14.8798 7.89355 14.8066 7.84845 14.8066 7.84845C14.8193 7.59487 14.409 7.84845 14.409 7.84845L7.2892 12.4289L4.32417 11.4191C4.32417 11.4191 3.86877 11.2557 3.82587 10.8966C3.78077 10.5402 4.339 10.3466 4.339 10.3466L16.1277 5.66334C16.1277 5.66334 17.0968 5.23157 17.0968 5.9466L14.9975 16.6677Z" fill="#F06449"/>
</svg>