<svg xmlns="http://www.w3.org/2000/svg" viewBox="0 0 23 22" fill="none">
    <path d="M11.5028 0H11.4973C5.43214 0 0.500014 4.93349 0.500014 11C0.496248 13.3169 1.22966 15.5749 2.59414 17.4474L1.22326 21.5338L5.45139 20.1822C7.24489 21.3721 9.35044 22.0046 11.5028 22C17.5679 22 22.5 17.0651 22.5 11C22.5 4.93487 17.5679 0 11.5028 0ZM17.9034 15.5334C17.638 16.2827 16.5848 16.9042 15.7446 17.0857C15.1699 17.2081 14.4191 17.3057 11.8919 16.258C8.65926 14.9187 6.57751 11.6339 6.41526 11.4207C6.25989 11.2076 5.10901 9.68136 5.10901 8.10287C5.10901 6.52437 5.91064 5.75574 6.23376 5.42574C6.49914 5.15487 6.93776 5.03112 7.35851 5.03112C7.49463 5.03112 7.61701 5.03799 7.72701 5.04349C8.05013 5.05724 8.21238 5.07649 8.42551 5.58662C8.69088 6.22599 9.33713 7.80449 9.41413 7.96674C9.49251 8.12899 9.57088 8.34899 9.46088 8.56212C9.35776 8.78211 9.26701 8.87974 9.10476 9.06674C8.94251 9.25374 8.78851 9.39674 8.62626 9.59749C8.47776 9.77211 8.31001 9.95911 8.49701 10.2822C8.68401 10.5985 9.33026 11.6531 10.2818 12.5001C11.5096 13.5932 12.5051 13.9425 12.8613 14.091C13.1266 14.201 13.4429 14.1749 13.6368 13.9686C13.8829 13.7032 14.1868 13.2632 14.4961 12.8301C14.7161 12.5194 14.9939 12.4809 15.2854 12.5909C15.5824 12.694 17.154 13.4709 17.4771 13.6317C17.8003 13.794 18.0134 13.871 18.0918 14.0071C18.1688 14.1432 18.1688 14.7826 17.9034 15.5334Z" fill="#F06449"/>
</svg>